<mxfile host="65bd71144e">
    <diagram id="6BWCTdpfktp0ogsAgubb" name="Page-1">
        <mxGraphModel dx="802" dy="351" grid="1" gridSize="10" guides="1" tooltips="1" connect="1" arrows="1" fold="1" page="1" pageScale="1" pageWidth="827" pageHeight="1169" math="0" shadow="0">
            <root>
                <mxCell id="0"/>
                <mxCell id="1" parent="0"/>
                <mxCell id="2" value="Pool" style="swimlane;html=1;childLayout=stackLayout;startSize=20;rounded=0;shadow=0;labelBackgroundColor=none;strokeWidth=1;fontFamily=Verdana;fontSize=8;align=center;" vertex="1" parent="1">
                    <mxGeometry x="70" y="40" width="960" height="750" as="geometry"/>
                </mxCell>
                <mxCell id="3" value="change&lt;br&gt;" style="swimlane;html=1;startSize=20;" vertex="1" parent="2">
                    <mxGeometry y="20" width="160" height="730" as="geometry"/>
                </mxCell>
                <mxCell id="4" value="vue file change" style="rounded=1;whiteSpace=wrap;html=1;shadow=0;labelBackgroundColor=none;strokeWidth=1;fontFamily=Verdana;fontSize=8;align=center;" vertex="1" parent="3">
                    <mxGeometry x="30" y="90" width="100" height="60" as="geometry"/>
                </mxCell>
                <mxCell id="50" value="pywebview file change" style="rounded=1;whiteSpace=wrap;html=1;shadow=0;labelBackgroundColor=none;strokeWidth=1;fontFamily=Verdana;fontSize=8;align=center;" vertex="1" parent="3">
                    <mxGeometry x="30" y="230" width="100" height="60" as="geometry"/>
                </mxCell>
                <mxCell id="51" value="fastapi file change" style="rounded=1;whiteSpace=wrap;html=1;shadow=0;labelBackgroundColor=none;strokeWidth=1;fontFamily=Verdana;fontSize=8;align=center;" vertex="1" parent="3">
                    <mxGeometry x="30" y="400" width="100" height="60" as="geometry"/>
                </mxCell>
                <mxCell id="22" value="Lane 2" style="swimlane;html=1;startSize=20;" vertex="1" parent="2">
                    <mxGeometry x="160" y="20" width="160" height="730" as="geometry"/>
                </mxCell>
                <mxCell id="49" value="&amp;nbsp;change" style="rounded=1;whiteSpace=wrap;html=1;shadow=0;labelBackgroundColor=none;strokeWidth=1;fontFamily=Verdana;fontSize=8;align=center;" vertex="1" parent="22">
                    <mxGeometry x="30" y="90" width="100" height="60" as="geometry"/>
                </mxCell>
                <mxCell id="24" value="Lane 3" style="swimlane;html=1;startSize=20;" vertex="1" parent="2">
                    <mxGeometry x="320" y="20" width="160" height="730" as="geometry"/>
                </mxCell>
                <mxCell id="29" value="Lane 4" style="swimlane;html=1;startSize=20;" vertex="1" parent="2">
                    <mxGeometry x="480" y="20" width="160" height="730" as="geometry"/>
                </mxCell>
                <mxCell id="38" value="Lane 5" style="swimlane;html=1;startSize=20;" vertex="1" parent="2">
                    <mxGeometry x="640" y="20" width="160" height="730" as="geometry"/>
                </mxCell>
                <mxCell id="45" value="Lane 6" style="swimlane;html=1;startSize=20;" vertex="1" parent="2">
                    <mxGeometry x="800" y="20" width="160" height="730" as="geometry"/>
                </mxCell>
            </root>
        </mxGraphModel>
    </diagram>
</mxfile>